{"title":"Little Fockers TS XViD - IMAGiNE","uid":6067238,"size":748110777,"categoryP":"video","categoryS":"movies","magnet":"?xt=urn:btih:957ccbd161eb87aa3a8e65315e52e5c31b9fce15&amp;dn=Little+Fockers+TS+XViD+-+IMAGiNE&amp;tr=udp%3A%2F%2Ftracker.openbittorrent.com%3A80&amp;tr=udp%3A%2F%2Fopen.demonii.com%3A1337&amp;tr=udp%3A%2F%2Ftracker.coppersurfer.tk%3A6969&amp;tr=udp%3A%2F%2Fexodus.desync.com%3A6969","seeders":0,"leechers":0,"uploader":"SAFCukO09","files":54,"time":1293439428,"description":"*********** **** **** *** ******** *********** **** *** **********\n\n*+* +*+*+* *+*+*+ *+* *+* *+* *+* *+* *+*+* *+* *+*\n\n+*+ +*+ +*+*+ +*+ +*+ +*+ +*+ +*+ *+*+*+ +*+ +*+\n\n+$+ +$+ +*+ +$+ +$++*++$++* *$* +$+ +$+ +*+ +$+ +$++*++$\n\n+$+ +$+ +$+ +$+ +$+ +$+ +$+$ +$+ +$+ +$+$+$ +$+\n\n$+$ $+$ $+$ $+$ $+$ $+$ $+$ $+$ $+$ $+$+$ $+$\n\n$$$$$$$$$$$ $$$ $$$ $$$ $$$ $$$$$$$$ $$$$$$$$$$$ $$$ $$$$ $$$$$$$$$$\n\n\n\n\n\n\n\n\n\nAnother Fine Release Brought to you from - IMAGiNE\n\n\n\n\n\n********************************************************************************************************************\n\nLittle Fockers TS XViD - IMAGiNE\n\n********************************************************************************************************************\n\n\n\nRipper ...........:IMAGiNE IMDB Rating.......:5.3/10\n\nVideo Codec.......:XVID Release Date......:27/12/10\n\nAudio Codec.......:MP3 Theatre Date......:22/12/10\n\nAudio Bitrate.....:192 Runtime...........:1h 33mn\n\nSubtitles.........:NIL Language..........:ENGLISH\n\nResolution........:640 x 354 IMDb URL.......... http://www.imdb.com/title/tt0970866/\n\n\n\n\n\n\n\nDETAILS:\n\n\n\nVideo\n\nID : 0\n\nFormat : MPEG-4 Visual\n\nFormat profile : Advanced Simple@L5\n\nFormat settings, BVOP : Yes\n\nFormat settings, QPel : No\n\nFormat settings, GMC : No warppoints\n\nFormat settings, Matrix : Default (H.263)\n\nMuxing mode : Packed bitstream\n\nCodec ID : XVID\n\nCodec ID/Hint : XviD\n\nDuration : 1h 33mn\n\nBit rate : 850 Kbps\n\nWidth : 640 pixels\n\nHeight : 354 pixels\n\nDisplay aspect ratio : 16:9\n\nFrame rate : 25.000 fps\n\nColor space : YUV\n\nChroma subsampling : 4:2:0\n\nBit depth : 8 bits\n\nScan type : Progressive\n\nCompression mode : Lossy\n\nBits/(Pixel*Frame) : 0.150\n\nStream size : 568 MiB (81%)\n\nWriting library : XviD 1.1.2 (UTC 2006-11-01)\n\n\n\nAudio\n\nID : 1\n\nFormat : MPEG Audio\n\nFormat version : Version 1\n\nFormat profile : Layer 3\n\nCodec ID : 55\n\nCodec ID/Hint : MP3\n\nDuration : 1h 33mn\n\nBit rate mode : Constant\n\nBit rate : 192 Kbps\n\nChannel(s) : 2 channels\n\nSampling rate : 44.1 KHz\n\nCompression mode : Lossy\n\nStream size : 128 MiB (18%)\n\nAlignment : Split accross interleaves\n\nInterleave, duration : 40 ms (1.00 video frame)\n\nInterleave, preload duration : 500 ms\n\n\n\n\n\n\n\nSOURCES:\n\n\n\nVIDEO:Serenity Thanks\n\nAUDIO:Own\n\n\n\n\n\nNOTES:\n\n\n\nIMAGiNE bringing you another release.......... Little Fockers\n\n\n\nHere we are with a nice TS of this one...\n\nWe we're sent the original video from our friend's at Serenity so thanks mates. We used 15 seconds\n\nof cam audio for the very beginning inrto scene and the rest is line...\n\nAnd I must say very good line imo... :P\n\n\n\nWe did our normal filtering to the video of changing the brightness,contrast,rgb colors, resize\n\nalong with a slight sparpening filter. The audio is is some nice LiNE so it was just a matter\n\nof syncing it and then muxing it to the video.... :P\n\n\n\n\n\nEnjoy folks......\n\n\n\n\n\n\n\nSCREENS:\n\n","torrent":{"xt":"urn:btih:957ccbd161eb87aa3a8e65315e52e5c31b9fce15","amp;dn":"Little+Fockers+TS+XViD+-+IMAGiNE","amp;tr":["udp%3A%2F%2Ftracker.openbittorrent.com%3A80","udp%3A%2F%2Fopen.demonii.com%3A1337","udp%3A%2F%2Ftracker.coppersurfer.tk%3A6969","udp%3A%2F%2Fexodus.desync.com%3A6969"],"infoHash":"957ccbd161eb87aa3a8e65315e52e5c31b9fce15","infoHashBuffer":{"type":"Buffer","data":[149,124,203,209,97,235,135,170,58,142,101,49,94,82,229,195,27,159,206,21]},"announce":[],"urlList":[]}}